HIERARCHY
ROOT Hips
{
	OFFSET 0.000000 0.000000 0.000000
	CHANNELS 6 Xposition Yposition Zposition Xrotation Yrotation Zrotation
	JOINT LeftUpLeg_virtual
	{
		OFFSET 0.000000 0.000000 0.000000
		CHANNELS 3 Xrotation Yrotation Zrotation
		JOINT LeftUpLeg
		{
			OFFSET 15.427100 -6.655098 0.678600
			CHANNELS 3 Xrotation Yrotation Zrotation
			JOINT LeftLeg
			{
				OFFSET 4.081073 -39.591068 13.024000
				CHANNELS 3 Xrotation Yrotation Zrotation
				JOINT LeftFoot
				{
					OFFSET -4.081074 -37.707932 -15.979700
					CHANNELS 3 Xrotation Yrotation Zrotation
					JOINT LeftToeBase
					{
						OFFSET 5.346399 -15.068900 20.645000
						CHANNELS 3 Xrotation Yrotation Zrotation
						JOINT LeftToe_End
						{
							OFFSET 2.754700 0.931300 11.300900
							CHANNELS 3 Xrotation Yrotation Zrotation
							End Site
							{
								OFFSET 0 0 0
							}
						}
					}
				}
			}
		}
	}
	JOINT RightUpLeg_virtual
	{
		OFFSET 0.000000 0.000000 0.000000
		CHANNELS 3 Xrotation Yrotation Zrotation
		JOINT RightUpLeg
		{
			OFFSET -15.569500 -6.655098 0.678600
			CHANNELS 3 Xrotation Yrotation Zrotation
			JOINT RightLeg
			{
				OFFSET -4.081825 -39.591045 13.023800
				CHANNELS 3 Xrotation Yrotation Zrotation
				JOINT RightFoot
				{
					OFFSET 4.081824 -37.707954 -15.979600
					CHANNELS 3 Xrotation Yrotation Zrotation
					JOINT RightToeBase
					{
						OFFSET -5.346400 -15.068900 20.645000
						CHANNELS 3 Xrotation Yrotation Zrotation
						JOINT RightToe_End
						{
							OFFSET -2.754700 0.931300 11.300900
							CHANNELS 3 Xrotation Yrotation Zrotation
							End Site
							{
								OFFSET 0 0 0
							}
						}
					}
				}
			}
		}
	}
	JOINT Spine_virtual
	{
		OFFSET 0.000000 0.000000 0.000000
		CHANNELS 3 Xrotation Yrotation Zrotation
		JOINT Spine
		{
			OFFSET -0.279200 12.230698 -2.892100
			CHANNELS 3 Xrotation Yrotation Zrotation
			JOINT Spine1
			{
				OFFSET -0.232667 10.192268 -1.242267
				CHANNELS 3 Xrotation Yrotation Zrotation
				JOINT Spine1_split
				{
					OFFSET -0.232667 10.192268 -1.242267
					CHANNELS 3 Xrotation Yrotation Zrotation
					JOINT Spine2
					{
						OFFSET -0.232667 10.192268 -1.242267
						CHANNELS 3 Xrotation Yrotation Zrotation
						JOINT Neck_virtual
						{
							OFFSET 0.000000 0.000000 0.000000
							CHANNELS 3 Xrotation Yrotation Zrotation
							JOINT Neck
							{
								OFFSET -0.418800 17.814194 8.416900
								CHANNELS 3 Xrotation Yrotation Zrotation
								JOINT Head
								{
									OFFSET 0.000000 7.031097 3.806800
									CHANNELS 3 Xrotation Yrotation Zrotation
									JOINT HeadTop_End
									{
										OFFSET 0.000000 24.646606 12.978600
										CHANNELS 3 Xrotation Yrotation Zrotation
										End Site
										{
											OFFSET 0 0 0
										}
									}
								}
							}
						}
						JOINT LeftShoulder_virtual
						{
							OFFSET 0.000000 0.000000 0.000000
							CHANNELS 3 Xrotation Yrotation Zrotation
							JOINT LeftShoulder
							{
								OFFSET 8.476499 7.247704 -3.868750
								CHANNELS 3 Xrotation Yrotation Zrotation
								JOINT LeftShoulder_split
								{
									OFFSET 8.476499 7.247704 -3.868750
									CHANNELS 3 Xrotation Yrotation Zrotation
									JOINT LeftArm
									{
										OFFSET 9.308998 -2.777710 0.208600
										CHANNELS 3 Xrotation Yrotation Zrotation
										JOINT LeftForeArm
										{
											OFFSET 29.972298 0.000000 0.000000
											CHANNELS 3 Xrotation Yrotation Zrotation
											JOINT LeftHand
											{
												OFFSET 26.026505 0.000000 0.000000
												CHANNELS 3 Xrotation Yrotation Zrotation
												End Site
												{
													OFFSET 0 0 0
												}
											}
										}
									}
								}
							}
						}
						JOINT RightShoulder_virtual
						{
							OFFSET 0.000000 0.000000 0.000000
							CHANNELS 3 Xrotation Yrotation Zrotation
							JOINT RightShoulder
							{
								OFFSET -7.570500 7.247704 -3.868750
								CHANNELS 3 Xrotation Yrotation Zrotation
								JOINT RightShoulder_split
								{
									OFFSET -7.570500 7.247704 -3.868750
									CHANNELS 3 Xrotation Yrotation Zrotation
									JOINT RightArm
									{
										OFFSET -9.308998 -2.777710 0.208500
										CHANNELS 3 Xrotation Yrotation Zrotation
										JOINT RightForeArm
										{
											OFFSET -29.972300 0.000000 0.000000
											CHANNELS 3 Xrotation Yrotation Zrotation
											JOINT RightHand
											{
												OFFSET -26.026505 0.000000 0.000000
												CHANNELS 3 Xrotation Yrotation Zrotation
												End Site
												{
													OFFSET 0 0 0
												}
											}
										}
									}
								}
							}
						}
					}
				}
			}
		}
	}
}
MOTION
Frames: 8
Frame Time: 0.03333333
6.286503 49.303234 17.208542 0.000000 0.000000 0.000000 3.828736 15.321547 1.477110 -84.049467 -14.855626 14.535565 76.485155 -1.451629 -2.525719 12.310382 -9.845347 -15.450704 -6.387934 -0.809031 -3.159719 0.000000 0.000000 0.000000 3.392230 16.521352 1.462907 -83.877011 16.972419 -14.053038 79.598786 3.320468 3.104647 10.567445 -5.668783 16.756715 4.888525 0.709869 -8.241299 0.000000 0.000000 0.000000 2.517083 19.372279 1.799817 5.573165 -0.257022 1.452853 5.258148 -1.149327 -0.844865 0.142513 -0.077586 0.091253 0.000000 0.000000 0.000000 5.395299 1.110084 -1.014336 -6.172310 10.748188 2.513480 -37.548067 -13.200536 12.208522 0.000000 0.000000 0.000000 3.168939 -1.500708 -1.728564 -1.064581 -20.441260 -10.183390 -3.712039 2.927219 -4.036339 10.595022 -10.914197 -44.904891 16.803273 -70.235518 12.015210 0.000000 0.000000 0.000000 4.283840 -0.558682 -0.302316 -2.394391 -0.174989 6.585848 2.346827 2.317393 5.971993 7.614121 35.726811 61.081426 -18.883298 61.536589 13.735711 0.000000 0.000000 0.000000 
6.371141 49.286312 17.192266 0.000000 0.000000 0.000000 3.603559 15.148750 1.581616 -83.922930 -14.960020 14.503767 76.471884 -1.477465 -2.605157 12.590968 -9.849111 -15.326048 -6.404218 -0.782139 -3.190454 0.000000 0.000000 0.000000 3.225499 16.369901 1.603134 -83.704474 16.794129 -14.209882 79.352721 3.295347 3.180747 10.504241 -5.634953 16.608575 4.624196 0.735617 -8.249620 0.000000 0.000000 0.000000 2.248193 19.392738 1.836553 5.632172 -0.264162 1.320589 5.348133 -1.068349 -0.733831 0.174015 -0.065919 0.023812 0.000000 0.000000 0.000000 5.321525 1.236060 -0.955217 -5.972693 10.808755 2.399071 -37.382612 -13.799400 12.498694 0.000000 0.000000 0.000000 3.227874 -1.359642 -1.672902 -1.111659 -20.626287 -10.357272 -2.856673 2.442745 -3.532804 10.256713 -10.987117 -45.495098 18.145960 -69.184216 12.839399 0.000000 0.000000 0.000000 4.475239 -0.428165 -0.297349 -2.294942 -0.088444 6.945569 1.951004 2.057716 5.660576 7.411303 33.721296 59.717205 -17.565488 60.179984 12.944463 0.000000 0.000000 0.000000 
6.410912 49.288460 17.160656 0.000000 0.000000 0.000000 3.146083 14.971498 1.798626 -83.573648 -15.052572 14.405668 76.351884 -1.418825 -2.631862 12.946264 -10.013967 -15.088048 -6.613699 -0.746487 -3.220073 0.000000 0.000000 0.000000 2.756488 16.090802 1.860245 -83.354816 16.577214 -14.423314 79.060819 3.343827 3.270489 10.383494 -5.529727 16.496958 4.347493 0.772793 -8.260995 0.000000 0.000000 0.000000 1.883062 19.476319 1.847446 5.584727 -0.304246 0.897414 5.724431 -1.056754 -0.510442 0.166345 -0.045954 -0.031552 0.000000 0.000000 0.000000 5.473507 1.337118 -0.788448 -5.092790 10.622233 2.500030 -37.550437 -14.841624 12.399116 0.000000 0.000000 0.000000 3.491297 -1.239597 -1.504955 -1.095093 -20.949737 -10.540422 -2.372190 2.231337 -2.271852 9.264589 -11.407611 -46.145212 18.780761 -69.711411 13.626184 0.000000 0.000000 0.000000 4.957221 -0.351107 -0.231971 -2.164294 0.366494 7.662893 1.585043 2.089088 5.353285 7.684748 31.308351 56.528848 -16.980487 60.648426 12.817807 0.000000 0.000000 0.000000 
6.388124 49.329601 17.120731 0.000000 0.000000 0.000000 2.526664 14.892736 2.085559 -83.068412 -15.142330 14.264678 76.164525 -1.286372 -2.612062 13.263170 -10.287736 -14.818041 -6.893432 -0.707748 -3.234166 0.000000 0.000000 0.000000 2.124852 15.814156 2.190407 -82.902801 16.392848 -14.682069 78.762832 3.486206 3.368937 10.209663 -5.366648 16.408594 4.194187 0.801942 -8.276337 0.000000 0.000000 0.000000 1.460793 19.590176 1.857084 5.439436 -0.373438 0.266543 6.356848 -1.098404 -0.221369 0.160751 -0.090987 -0.036791 0.000000 0.000000 0.000000 5.863234 1.389967 -0.538098 -3.714469 10.195407 2.727418 -38.234832 -16.399858 11.737901 0.000000 0.000000 0.000000 3.951092 -1.125846 -1.262475 -0.953038 -21.343426 -10.512648 -2.199913 2.060451 -0.948505 7.369961 -11.931492 -46.299359 19.590386 -72.531787 15.205717 0.000000 0.000000 0.000000 5.673281 -0.322077 -0.126934 -2.017960 1.204988 8.480462 1.249470 1.870363 5.156096 7.860029 28.961600 52.281628 -17.885211 64.371862 14.150022 0.000000 0.000000 0.000000 
6.316657 49.392429 17.041809 0.000000 0.000000 0.000000 1.817180 14.865449 2.397989 -82.527045 -15.264858 14.086067 76.007308 -1.100777 -2.551358 13.514666 -10.575647 -14.632415 -7.038204 -0.670593 -3.234181 0.000000 0.000000 0.000000 1.416333 15.612914 2.521807 -82.438881 16.263502 -14.964079 78.507663 3.699557 3.481125 10.023117 -5.193090 16.277372 4.227489 0.815810 -8.305553 0.000000 0.000000 0.000000 1.033672 19.648359 1.865543 5.197132 -0.476866 -0.423948 7.195001 -1.154657 0.087256 0.142935 -0.109067 0.008939 0.000000 0.000000 0.000000 6.458555 1.377131 -0.251909 -2.008215 9.549252 2.924554 -39.291613 -18.235835 10.529915 0.000000 0.000000 0.000000 4.593775 -1.047145 -1.009824 -0.657029 -21.710439 -10.221151 -2.112921 1.508766 -0.068106 4.713134 -12.378956 -45.368937 22.136773 -77.498482 18.885019 0.000000 0.000000 0.000000 6.538402 -0.326365 -0.000109 -1.888394 2.384559 9.089855 1.513465 1.143121 5.365004 7.364821 27.067147 47.633480 -22.679577 71.678744 19.280885 0.000000 0.000000 0.000000 
6.226042 49.444683 16.971703 0.000000 0.000000 0.000000 1.159083 14.762370 2.681063 -82.042047 -15.445337 13.896568 75.881469 -0.853306 -2.486758 13.612132 -10.746054 -14.599584 -6.970808 -0.641657 -3.208040 0.000000 0.000000 0.000000 0.794244 15.407636 2.797650 -82.107890 16.197886 -15.259105 78.337168 3.939642 3.617646 9.872443 -5.046818 16.071300 4.391232 0.814277 -8.358570 0.000000 0.000000 0.000000 0.641070 19.621696 1.932334 4.854841 -0.635361 -1.043324 8.177204 -1.194316 0.347621 0.123933 -0.119692 0.029576 0.000000 0.000000 0.000000 7.201708 1.321143 0.006649 -0.143696 8.840684 2.943704 -40.619767 -20.073117 8.895982 0.000000 0.000000 0.000000 5.373875 -0.990908 -0.806967 -0.188696 -21.886358 -9.541179 -2.104245 -0.030547 0.469950 1.137012 -12.995511 -42.861626 33.728150 -83.966063 31.677605 0.000000 0.000000 0.000000 7.452821 -0.342954 0.111879 -1.767572 3.926286 9.147852 2.014330 0.663906 6.244131 5.717431 25.479138 43.078696 -43.383350 80.776522 40.199813 0.000000 0.000000 0.000000 
6.142637 49.459805 16.944532 0.000000 0.000000 0.000000 0.762108 14.607609 2.877301 -81.673374 -15.618694 13.699852 75.800763 -0.493451 -2.473718 13.456122 -10.698388 -14.655622 -6.825936 -0.628098 -3.133158 0.000000 0.000000 0.000000 0.392612 15.170403 2.980628 -82.011830 16.184237 -15.593803 78.304772 4.206556 3.782779 9.811270 -4.937155 15.834906 4.593197 0.798721 -8.438290 0.000000 0.000000 0.000000 0.432548 19.505140 2.047828 4.371412 -0.898540 -1.523324 9.185452 -1.229516 0.501411 0.117062 -0.209436 0.023114 0.000000 0.000000 0.000000 8.016803 1.234007 0.192832 1.650199 8.185645 2.619811 -41.996251 -21.493038 7.014386 0.000000 0.000000 0.000000 6.194553 -0.954212 -0.682444 0.421236 -21.747693 -8.314860 -2.134325 -2.277404 0.478567 -3.568707 -14.019476 -38.437515 141.255006 -86.847932 140.322999 0.000000 0.000000 0.000000 8.281482 -0.387808 0.184856 -1.613835 5.716293 8.517137 2.576446 0.254517 7.634464 2.199923 24.019192 38.964515 -125.656329 82.831603 122.535124 0.000000 0.000000 0.000000 
6.087719 49.461464 16.982496 0.000000 0.000000 0.000000 0.717805 14.398351 2.948423 -81.479902 -15.779537 13.494751 75.820789 -0.052518 -2.505620 13.091949 -10.446005 -14.826292 -6.755589 -0.623626 -3.032215 0.000000 0.000000 0.000000 0.303206 14.879130 3.059211 -82.176601 16.231212 -15.964358 78.428521 4.509456 3.957651 9.875214 -4.829799 15.651433 4.776538 0.773961 -8.534631 0.000000 0.000000 0.000000 0.570318 19.286057 2.120287 3.788554 -1.299982 -1.834695 10.082407 -1.253880 0.532557 0.115810 -0.299983 0.013927 0.000000 0.000000 0.000000 8.751736 1.121205 0.292264 3.162984 7.652653 1.884889 -43.228810 -22.170898 5.168574 0.000000 0.000000 0.000000 6.904223 -0.951282 -0.660820 1.122900 -21.109502 -6.488544 -2.244689 -4.063850 0.317800 -9.982172 -15.764056 -32.188865 175.934048 -80.421393 175.904815 0.000000 0.000000 0.000000 8.929176 -0.453017 0.205008 -1.383781 7.602745 6.993866 3.124649 -0.347350 9.099975 -3.535195 22.405203 35.411987 -157.151246 75.362183 153.881225 0.000000 0.000000 0.000000 
